ffmpeg version git-2020-08-31-4a11a6f Copyright (c) 2000-2020 the FFmpeg developers
  built with gcc 10.2.1 (GCC) 20200805
  configuration: --enable-gpl --enable-version3 --enable-sdl2 --enable-fontconfig --enable-gnutls --enable-iconv --enable-libass --enable-libdav1d --enable-libbluray --enable-libfreetype --enable-libmp3lame --enable-libopencore-amrnb --enable-libopencore-amrwb --enable-libopenjpeg --enable-libopus --enable-libshine --enable-libsnappy --enable-libsoxr --enable-libsrt --enable-libtheora --enable-libtwolame --enable-libvpx --enable-libwavpack --enable-libwebp --enable-libx264 --enable-libx265 --enable-libxml2 --enable-libzimg --enable-lzma --enable-zlib --enable-gmp --enable-libvidstab --enable-libvmaf --enable-libvorbis --enable-libvo-amrwbenc --enable-libmysofa --enable-libspeex --enable-libxvid --enable-libaom --enable-libgsm --enable-librav1e --enable-libsvtav1 --disable-w32threads --enable-libmfx --enable-ffnvcodec --enable-cuda-llvm --enable-cuvid --enable-d3d11va --enable-nvenc --enable-nvdec --enable-dxva2 --enable-avisynth --enable-libopenmpt --enable-amf
  libavutil      56. 58.100 / 56. 58.100
  libavcodec     58.101.101 / 58.101.101
  libavformat    58. 51.101 / 58. 51.101
  libavdevice    58. 11.101 / 58. 11.101
  libavfilter     7. 87.100 /  7. 87.100
  libswscale      5.  8.100 /  5.  8.100
  libswresample   3.  8.100 /  3.  8.100
  libpostproc    55.  8.100 / 55.  8.100
Input #0, mov,mp4,m4a,3gp,3g2,mj2, from 'C:\Users\andre\Desktop\sputofy_songs/Rakudai Kishi no Cavalry ED 落第騎士の英雄譚（キャバルリィ）ED 【HD】 60 FPS.mp4':
  Metadata:
    major_brand     : dash
    minor_version   : 0
    compatible_brands: iso6mp41
    creation_time   : 2018-11-13T16:37:45.000000Z
  Duration: 00:01:29.86, start: 0.000000, bitrate: 127 kb/s
    Stream #0:0(eng): Audio: aac (LC) (mp4a / 0x6134706D), 44100 Hz, stereo, fltp, 14 kb/s (default)
    Metadata:
      creation_time   : 2018-11-13T16:37:45.000000Z
      handler_name    : SoundHandler
Stream mapping:
  Stream #0:0 -> #0:0 (aac (native) -> mp3 (libmp3lame))
Press [q] to stop, [?] for help
Output #0, mp3, to 'C:\Users\andre\Desktop\sputofy_songs/Rakudai Kishi no Cavalry ED 落第騎士の英雄譚（キャバルリィ）ED 【HD】 60 FPS.mp3':
  Metadata:
    major_brand     : dash
    minor_version   : 0
    compatible_brands: iso6mp41
    TSSE            : Lavf58.51.101
    Stream #0:0(eng): Audio: mp3 (libmp3lame), 44100 Hz, stereo, fltp, 160 kb/s (default)
    Metadata:
      creation_time   : 2018-11-13T16:37:45.000000Z
      handler_name    : SoundHandler
      encoder         : Lavc58.101.101 libmp3lame
size=     512kB time=00:00:27.11 bitrate= 154.7kbits/s speed=54.2x    size=    1024kB time=00:00:54.64 bitrate= 153.5kbits/s speed=54.6x    size=    1536kB time=00:01:23.25 bitrate= 151.1kbits/s speed=55.5x    size=    1756kB time=00:01:29.86 bitrate= 160.1kbits/s speed=55.7x    
video:0kB audio:1756kB subtitle:0kB other streams:0kB global headers:0kB muxing overhead: 0.036713%

ffmpeg version git-2020-08-31-4a11a6f Copyright (c) 2000-2020 the FFmpeg developers
  built with gcc 10.2.1 (GCC) 20200805
  configuration: --enable-gpl --enable-version3 --enable-sdl2 --enable-fontconfig --enable-gnutls --enable-iconv --enable-libass --enable-libdav1d --enable-libbluray --enable-libfreetype --enable-libmp3lame --enable-libopencore-amrnb --enable-libopencore-amrwb --enable-libopenjpeg --enable-libopus --enable-libshine --enable-libsnappy --enable-libsoxr --enable-libsrt --enable-libtheora --enable-libtwolame --enable-libvpx --enable-libwavpack --enable-libwebp --enable-libx264 --enable-libx265 --enable-libxml2 --enable-libzimg --enable-lzma --enable-zlib --enable-gmp --enable-libvidstab --enable-libvmaf --enable-libvorbis --enable-libvo-amrwbenc --enable-libmysofa --enable-libspeex --enable-libxvid --enable-libaom --enable-libgsm --enable-librav1e --enable-libsvtav1 --disable-w32threads --enable-libmfx --enable-ffnvcodec --enable-cuda-llvm --enable-cuvid --enable-d3d11va --enable-nvenc --enable-nvdec --enable-dxva2 --enable-avisynth --enable-libopenmpt --enable-amf
  libavutil      56. 58.100 / 56. 58.100
  libavcodec     58.101.101 / 58.101.101
  libavformat    58. 51.101 / 58. 51.101
  libavdevice    58. 11.101 / 58. 11.101
  libavfilter     7. 87.100 /  7. 87.100
  libswscale      5.  8.100 /  5.  8.100
  libswresample   3.  8.100 /  3.  8.100
  libpostproc    55.  8.100 / 55.  8.100
Input #0, mov,mp4,m4a,3gp,3g2,mj2, from 'C:\Users\andre\Desktop\sputofy_songs/STEINSGATE 0 Opening  - Fatima by Kanako Ito.mp4':
  Metadata:
    major_brand     : dash
    minor_version   : 0
    compatible_brands: iso6mp41
    creation_time   : 2019-11-17T01:28:57.000000Z
  Duration: 00:04:41.50, start: 0.000000, bitrate: 129 kb/s
    Stream #0:0(eng): Audio: aac (LC) (mp4a / 0x6134706D), 44100 Hz, stereo, fltp, 4 kb/s (default)
    Metadata:
      creation_time   : 2019-11-17T01:28:57.000000Z
      handler_name    : ISO Media file produced by Google Inc.
Stream mapping:
  Stream #0:0 -> #0:0 (aac (native) -> mp3 (libmp3lame))
Press [q] to stop, [?] for help
Output #0, mp3, to 'C:\Users\andre\Desktop\sputofy_songs/STEINSGATE 0 Opening  - Fatima by Kanako Ito.mp3':
  Metadata:
    major_brand     : dash
    minor_version   : 0
    compatible_brands: iso6mp41
    TSSE            : Lavf58.51.101
    Stream #0:0(eng): Audio: mp3 (libmp3lame), 44100 Hz, stereo, fltp, 160 kb/s (default)
    Metadata:
      creation_time   : 2019-11-17T01:28:57.000000Z
      handler_name    : ISO Media file produced by Google Inc.
      encoder         : Lavc58.101.101 libmp3lame
size=     512kB time=00:00:29.57 bitrate= 141.8kbits/s speed=59.1x    size=    1024kB time=00:00:59.03 bitrate= 142.1kbits/s speed=  59x    size=    1536kB time=00:01:28.39 bitrate= 142.3kbits/s speed=58.9x    size=    2304kB time=00:01:58.36 bitrate= 159.5kbits/s speed=59.2x    size=    2816kB time=00:02:27.98 bitrate= 155.9kbits/s speed=59.2x    size=    3328kB time=00:02:57.47 bitrate= 153.6kbits/s speed=59.1x    size=    3840kB time=00:03:27.57 bitrate= 151.6kbits/s speed=59.3x    size=    4608kB time=00:03:56.48 bitrate= 159.6kbits/s speed=59.1x    size=    5120kB time=00:04:24.62 bitrate= 158.5kbits/s speed=58.8x    size=    5499kB time=00:04:41.49 bitrate= 160.0kbits/s speed=58.8x    
video:0kB audio:5498kB subtitle:0kB other streams:0kB global headers:0kB muxing overhead: 0.011722%

